<svg width="1512" height="2495" viewBox="0 0 1512 2495" fill="none" xmlns="http://www.w3.org/2000/svg">
<rect y="79" width="1512" height="2416" fill="#333652"/>
<path fill-rule="evenodd" clip-rule="evenodd" d="M0 9.83234L17 16.3576C34 23.1003 67 36.1509 101 41.1535C134 46.1562 168 42.8936 202 37.8909C235 32.8882 269 26.363 302 26.363C336 26.363 370 32.8882 403 41.1535C437 49.4189 470 59.2067 504 54.4216C538 49.4189 571 29.6256 605 16.3576C638 3.30708 672 -3.21817 706 1.56702C739 6.56971 773 23.1003 806 36.1509C840 49.4189 874 59.2067 907 55.9441C941 52.6815 974 36.1508 1008 24.6229C1042 13.095 1075 6.56971 1109 13.095C1142 19.8377 1176 39.4135 1210 39.4135C1243 39.4135 1277 19.8377 1310 19.8377C1344 19.8377 1378 39.4135 1411 47.6788C1445 55.9441 1478 52.6815 1495 50.9414L1512 49.4189V79H1495C1478 79 1445 79 1411 79C1378 79 1344 79 1310 79C1277 79 1243 79 1210 79C1176 79 1142 79 1109 79C1075 79 1042 79 1008 79C974 79 941 79 907 79C874 79 840 79 806 79C773 79 739 79 706 79C672 79 638 79 605 79C571 79 538 79 504 79C470 79 437 79 403 79C370 79 336 79 302 79C269 79 235 79 202 79C168 79 134 79 101 79C67 79 34 79 17 79H0V9.83234Z" fill="#333652"/>
</svg>
